<svg width="595" height="595" viewBox="0 0 595 595" fill="none"
  xmlns="http://www.w3.org/2000/svg">
  <path d="M350.797 396.099C322.701 463.166 265.639 508.657 200.282 515.337C199.613 515.604 199.613 515.604 200.282 515.337C190.716 516.339 180.949 516.473 171.048 515.738C248.58 572.318 340.027 581.803 340.027 581.803C359.627 583.807 381.77 585.477 403.979 584.876C411.806 564.435 416.221 541.055 414.95 514.535C412.006 452.946 447.796 421.282 486.461 405.05C466.593 374.389 453.549 338.851 443.447 304.048C413.277 312.131 376.217 335.244 350.797 396.099Z" fill="url(#paint0_linear)"/>
  <path d="M414.866 514.536C416.137 541.055 411.722 564.435 403.896 584.876C461.292 583.34 519.29 567.107 534.61 504.783C537.887 491.556 538.289 477.194 532.87 464.703C527.586 452.545 517.417 443.327 508.453 433.574C500.292 424.756 493 415.137 486.445 405.05C447.712 421.283 411.923 452.946 414.866 514.536Z" fill="url(#paint1_linear)"/>
  <path d="M441.101 295.695C432.271 272.115 424.779 248.535 413.339 226.557C409.526 219.209 405.312 212.062 400.429 205.181C388.856 188.815 375.744 173.451 361.027 159.958C335.607 160.024 309.25 155.549 284.9 143.124C260.349 177.927 232.855 236.644 258.61 304.112C296.673 403.711 219.476 472.783 169.906 514.933C170.308 515.201 170.709 515.535 171.043 515.802C180.944 516.537 190.711 516.403 200.277 515.401C265.634 508.654 322.696 463.163 350.792 396.163C376.279 335.308 413.34 312.195 443.509 304.179C442.707 301.24 441.904 298.434 441.101 295.695Z" fill="url(#paint2_linear)"/>
  <path d="M113.941 166.36C76.8812 206.841 57.3477 263.822 58.0166 319.399C58.418 351.731 66.9137 382.192 80.9618 410.114C83.0356 414.322 85.31 418.464 87.6514 422.539C165.451 344.516 137.355 228.284 113.941 166.36Z" fill="url(#paint3_linear)"/>
  <path d="M259.296 304.503C233.541 237.035 261.035 178.318 285.586 143.515C270.4 135.766 256.018 124.811 243.174 109.914C224.51 109.513 205.512 112.319 186.848 118.531C157.882 128.084 133.465 144.917 113.865 166.293C137.278 228.217 165.441 344.516 87.5747 422.539C102.359 448.323 121.691 471.837 143.433 492.545C152.129 500.895 161.294 508.444 170.592 515.324C220.162 473.24 297.359 404.102 259.296 304.503Z" fill="url(#paint4_linear)"/>
  <path d="M354.605 72.4361C408.523 93.6786 446.252 99.4234 473.613 98.6218C474.148 98.2878 474.415 98.0874 474.415 98.0874C372.466 -75.5929 239.144 61.1469 239.144 61.1469C239.21 61.2805 239.277 61.3473 239.344 61.4809C268.109 56.4041 309.852 54.8009 354.605 72.4361Z" fill="url(#paint5_linear)"/>
  <path d="M354.605 71.179C309.919 53.5437 268.109 55.1469 239.344 60.2237C316.007 194.425 461.705 104.98 473.68 97.3646C446.186 98.1662 408.456 92.4214 354.605 71.179Z" fill="url(#paint6_linear)"/>
  <defs>
    <linearGradient id="paint0_linear" x1="106.951" y1="521.394" x2="497.559" y2="426.282" gradientUnits="userSpaceOnUse">
      <stop offset="0.2102" stop-color="#E54033"/>
      <stop offset="0.8441" stop-color="#FECA1A"/>
    </linearGradient>
    <linearGradient id="paint1_linear" x1="416.306" y1="494.747" x2="534.934" y2="495.64" gradientUnits="userSpaceOnUse">
      <stop stop-color="#FECA1A"/>
      <stop offset="0.398" stop-color="#FECA1A"/>
      <stop offset="1" stop-color="#AFD803"/>
    </linearGradient>
    <linearGradient id="paint2_linear" x1="142.396" y1="523.423" x2="389.007" y2="189.086" gradientUnits="userSpaceOnUse">
      <stop offset="0.1627" stop-color="#E54033"/>
      <stop offset="0.8437" stop-color="#FECA1A"/>
    </linearGradient>
    <linearGradient id="paint3_linear" x1="103.95" y1="193.609" x2="93.2772" y2="404.699" gradientUnits="userSpaceOnUse">
      <stop stop-color="#FECA1A"/>
      <stop offset="0.7596" stop-color="#E54033"/>
    </linearGradient>
    <linearGradient id="paint4_linear" x1="227.312" y1="135.318" x2="161.485" y2="385.642" gradientUnits="userSpaceOnUse">
      <stop offset="0.1562" stop-color="#FECA1A"/>
      <stop offset="1" stop-color="#E54033"/>
    </linearGradient>
    <linearGradient id="paint5_linear" x1="252.127" y1="16.2878" x2="496.435" y2="106.472" gradientUnits="userSpaceOnUse">
      <stop offset="0.1478" stop-color="#6CBF00"/>
      <stop offset="1" stop-color="#AFD803"/>
    </linearGradient>
    <linearGradient id="paint6_linear" x1="470.953" y1="138.394" x2="265.868" y2="67.8515" gradientUnits="userSpaceOnUse">
      <stop offset="0.1478" stop-color="#6CBF00"/>
      <stop offset="1" stop-color="#AFD803"/>
    </linearGradient>
  </defs>
</svg>
